<svg width="24" height="24" viewBox="0 0 24 24" fill="none" xmlns="http://www.w3.org/2000/svg">
<path fill-rule="evenodd" clip-rule="evenodd" d="M8.79839 19.2646C9.34726 19.3899 10.053 19.4 12 19.4C13.947 19.4 14.6527 19.3899 15.2016 19.2646C17.2239 18.803 18.803 17.2239 19.2646 15.2016C19.3899 14.6527 19.4 13.947 19.4 12C19.4 10.053 19.3899 9.34726 19.2646 8.79839C18.803 6.77611 17.2239 5.19696 15.2016 4.73539C14.6527 4.61011 13.947 4.6 12 4.6C10.053 4.6 9.34726 4.61011 8.79839 4.73539C6.77611 5.19696 5.19696 6.77611 4.73539 8.79839C4.61011 9.34726 4.6 10.053 4.6 12C4.6 13.947 4.61011 14.6527 4.73539 15.2016C5.19696 17.2239 6.77611 18.803 8.79839 19.2646ZM3.1755 8.44235C3 9.21129 3 10.1409 3 12C3 13.8591 3 14.7887 3.1755 15.5576C3.77384 18.1791 5.82088 20.2262 8.44235 20.8245C9.21129 21 10.1409 21 12 21C13.8591 21 14.7887 21 15.5576 20.8245C18.1791 20.2262 20.2262 18.1791 20.8245 15.5576C21 14.7887 21 13.8591 21 12C21 10.1409 21 9.21129 20.8245 8.44235C20.2262 5.82088 18.1791 3.77384 15.5576 3.1755C14.7887 3 13.8591 3 12 3C10.1409 3 9.21129 3 8.44235 3.1755C5.82088 3.77384 3.77384 5.82088 3.1755 8.44235Z" fill="white"/>
<path d="M12 14.9166V9.08325" stroke="white" stroke-width="1.5" stroke-linecap="round"/>
<path d="M9.08366 12L14.917 12" stroke="white" stroke-width="1.5" stroke-linecap="round"/>
</svg>
