<svg width="25" height="24" viewBox="0 0 25 24" fill="none" xmlns="http://www.w3.org/2000/svg">
<path fill-rule="evenodd" clip-rule="evenodd" d="M14.0579 5.53426C13.1873 4.69891 11.8128 4.69891 10.9422 5.53426L6.3158 9.9736C6.20245 10.0824 6.1262 10.2241 6.09787 10.3786C5.54373 13.4004 5.50283 16.4941 5.97687 19.5295L6.08939 20.25H9.06585V14.0387C9.06585 13.6245 9.40164 13.2887 9.81585 13.2887H15.1843C15.5985 13.2887 15.9343 13.6245 15.9343 14.0387V20.25H18.9107L19.0232 19.5295C19.4973 16.4941 19.4564 13.4004 18.9023 10.3786C18.8739 10.2241 18.7977 10.0824 18.6843 9.9736L14.0579 5.53426ZM9.90369 4.45194C11.3546 3.05968 13.6455 3.05968 15.0964 4.45194L19.7229 8.89128C20.0634 9.21807 20.2925 9.64376 20.3777 10.108C20.9622 13.2956 21.0053 16.559 20.5053 19.761L20.3245 20.9184C20.2498 21.3971 19.8375 21.75 19.353 21.75H15.1843C14.7701 21.75 14.4343 21.4142 14.4343 21V14.7887H10.5659V21C10.5659 21.4142 10.2301 21.75 9.81585 21.75H5.64712C5.16264 21.75 4.75035 21.3971 4.6756 20.9184L4.49484 19.761C3.99479 16.559 4.03794 13.2956 4.62247 10.108C4.7076 9.64376 4.93668 9.21807 5.27725 8.89128L9.90369 4.45194Z" fill="#1E1F25"/>
</svg>
