<svg width="25" height="24" viewBox="0 0 25 24" fill="none" xmlns="http://www.w3.org/2000/svg">
<path fill-rule="evenodd" clip-rule="evenodd" d="M21.5 12C21.5 11.4957 21.1101 11.087 20.629 11.087H4.37097C3.88994 11.087 3.5 11.4957 3.5 12C3.5 12.5043 3.88994 12.913 4.37097 12.913H20.629C21.1101 12.913 21.5 12.5043 21.5 12Z" fill="#1E1F25"/>
<path fill-rule="evenodd" clip-rule="evenodd" d="M21.5 5.91304C21.5 5.40878 21.1101 5 20.629 5H4.37097C3.88994 5 3.5 5.40878 3.5 5.91304C3.5 6.4173 3.88994 6.82609 4.37097 6.82609H20.629C21.1101 6.82609 21.5 6.4173 21.5 5.91304Z" fill="#1E1F25"/>
<path fill-rule="evenodd" clip-rule="evenodd" d="M21.5 18.087C21.5 17.5827 21.1101 17.1739 20.629 17.1739H4.37097C3.88994 17.1739 3.5 17.5827 3.5 18.087C3.5 18.5912 3.88994 19 4.37097 19H20.629C21.1101 19 21.5 18.5912 21.5 18.087Z" fill="#1E1F25"/>
</svg>
